<svg width="12" height="12" viewBox="0 0 12 12" fill="none" xmlns="http://www.w3.org/2000/svg">
<g id="Arrow90degRight" clip-path="url(#clip0_3_33)">
<path id="Vector" fill-rule="evenodd" clip-rule="evenodd" d="M11.1405 3.6405C11.1754 3.60567 11.2031 3.56428 11.222 3.51873C11.2409 3.47317 11.2507 3.42433 11.2507 3.375C11.2507 3.32568 11.2409 3.27683 11.222 3.23128C11.2031 3.18572 11.1754 3.14433 11.1405 3.1095L8.1405 0.109501C8.07009 0.0390857 7.97458 -0.000473025 7.875 -0.000473022C7.77542 -0.00047302 7.67991 0.0390857 7.6095 0.109501C7.53908 0.179916 7.49953 0.275419 7.49953 0.375001C7.49953 0.474582 7.53908 0.570086 7.6095 0.640501L9.96975 3H2.625C2.12772 3 1.65081 3.19754 1.29917 3.54918C0.947544 3.90081 0.75 4.37772 0.75 4.875V10.875C0.75 10.9745 0.789509 11.0698 0.859835 11.1402C0.930161 11.2105 1.02554 11.25 1.125 11.25C1.22446 11.25 1.31984 11.2105 1.39017 11.1402C1.46049 11.0698 1.5 10.9745 1.5 10.875V4.875C1.5 4.57663 1.61853 4.29048 1.8295 4.07951C2.04048 3.86853 2.32663 3.75 2.625 3.75H9.96975L7.6095 6.1095C7.53908 6.17991 7.49953 6.27542 7.49953 6.375C7.49953 6.47458 7.53908 6.57009 7.6095 6.6405C7.67991 6.71092 7.77542 6.75047 7.875 6.75047C7.97458 6.75047 8.07009 6.71092 8.1405 6.6405L11.1405 3.6405Z" fill="#9C9C9C"/>
</g>
<defs>
<clipPath id="clip0_3_33">
<rect width="12" height="12" fill="white"/>
</clipPath>
</defs>
</svg>
