<svg width="13" height="13" viewBox="0 0 13 13" fill="none" xmlns="http://www.w3.org/2000/svg">
<g id="thumb_up">
<mask id="mask0_3_32" style="mask-type:alpha" maskUnits="userSpaceOnUse" x="0" y="0" width="13" height="13">
<rect id="Bounding box" x="0.949951" y="0.27771" width="12" height="12" fill="#D9D9D9"/>
</mask>
<g mask="url(#mask0_3_32)">
<path id="thumb_up_2" d="M9.94995 10.7777H4.44995V4.27771L7.94995 0.77771L8.57495 1.40271C8.63328 1.46104 8.6812 1.54021 8.7187 1.64021C8.7562 1.74021 8.77495 1.83604 8.77495 1.92771V2.10271L8.22495 4.27771H11.45C11.7166 4.27771 11.95 4.37771 12.15 4.57771C12.35 4.77771 12.45 5.01104 12.45 5.27771V6.27771C12.45 6.33604 12.4416 6.39854 12.425 6.46521C12.4083 6.53188 12.3916 6.59438 12.375 6.65271L10.875 10.1777C10.8 10.3444 10.675 10.486 10.5 10.6027C10.325 10.7194 10.1416 10.7777 9.94995 10.7777ZM5.44995 9.77771H9.94995L11.45 6.27771V5.27771H6.94995L7.62495 2.52771L5.44995 4.70271V9.77771ZM4.44995 4.27771V5.27771H2.94995V9.77771H4.44995V10.7777H1.94995V4.27771H4.44995Z" fill="#9C9C9C"/>
</g>
</g>
</svg>
